<svg xmlns="http://www.w3.org/2000/svg" width="640" height="420" viewBox="0 0 640 420">
  <rect width="640" height="420" fill="#edf2f7"/>
  <rect x="170" y="38" width="300" height="344" rx="6" fill="#ffffff" stroke="#94a3b8" stroke-width="3"/>
  <rect x="210" y="78" width="180" height="18" rx="2" fill="#1f2937"/>
  <rect x="210" y="118" width="224" height="11" rx="2" fill="#64748b"/>
  <rect x="210" y="144" width="196" height="11" rx="2" fill="#64748b"/>
  <circle cx="270" cy="220" r="34" fill="#60a5fa"/>
  <rect x="324" y="190" width="96" height="60" fill="#a7f3d0"/>
  <g opacity="0.23" transform="translate(0 94)">
    <rect x="210" y="78" width="180" height="18" rx="2" fill="#1f2937"/>
    <rect x="210" y="118" width="224" height="11" rx="2" fill="#64748b"/>
    <circle cx="270" cy="220" r="34" fill="#60a5fa"/>
    <rect x="324" y="190" width="96" height="60" fill="#a7f3d0"/>
  </g>
  <rect x="210" y="320" width="224" height="11" rx="2" fill="#cbd5e1"/>
  <rect x="210" y="344" width="168" height="11" rx="2" fill="#cbd5e1"/>
</svg>
