<svg xmlns="http://www.w3.org/2000/svg" width="720" height="320" viewBox="0 0 720 320" role="img" aria-labelledby="title description">
  <title id="title">Laptop memory question diagram</title>
  <desc id="description">A simplified memory module with its name concealed.</desc>
  <rect width="720" height="320" fill="#f5f7fa"/>
  <rect x="110" y="90" width="500" height="130" rx="10" fill="#287a4d" stroke="#17492e" stroke-width="6"/>
  <g fill="#263238">
    <rect x="155" y="115" width="74" height="58" rx="4"/>
    <rect x="250" y="115" width="74" height="58" rx="4"/>
    <rect x="396" y="115" width="74" height="58" rx="4"/>
    <rect x="491" y="115" width="74" height="58" rx="4"/>
  </g>
  <g fill="#d6a629">
    <rect x="135" y="220" width="18" height="34"/>
    <rect x="165" y="220" width="18" height="34"/>
    <rect x="195" y="220" width="18" height="34"/>
    <rect x="507" y="220" width="18" height="34"/>
    <rect x="537" y="220" width="18" height="34"/>
    <rect x="567" y="220" width="18" height="34"/>
  </g>
  <path d="M350 220v34h20v-34" fill="#f5f7fa"/>
  <rect x="250" y="32" width="220" height="44" rx="8" fill="#6b7280"/>
  <text x="360" y="62" fill="#fff" font-family="sans-serif" font-size="24" text-anchor="middle">IDENTIFY THIS MODULE</text>
</svg>
