<svg xmlns="http://www.w3.org/2000/svg" width="720" height="320" viewBox="0 0 720 320" role="img" aria-labelledby="title description">
  <title id="title">Laptop memory answer diagram</title>
  <desc id="description">A simplified memory module labeled SO-DIMM.</desc>
  <rect width="720" height="320" fill="#f5f7fa"/>
  <rect x="110" y="90" width="500" height="130" rx="10" fill="#287a4d" stroke="#17492e" stroke-width="6"/>
  <g fill="#263238">
    <rect x="155" y="115" width="74" height="58" rx="4"/>
    <rect x="250" y="115" width="74" height="58" rx="4"/>
    <rect x="396" y="115" width="74" height="58" rx="4"/>
    <rect x="491" y="115" width="74" height="58" rx="4"/>
  </g>
  <g fill="#d6a629">
    <rect x="135" y="220" width="18" height="34"/>
    <rect x="165" y="220" width="18" height="34"/>
    <rect x="195" y="220" width="18" height="34"/>
    <rect x="507" y="220" width="18" height="34"/>
    <rect x="537" y="220" width="18" height="34"/>
    <rect x="567" y="220" width="18" height="34"/>
  </g>
  <path d="M350 220v34h20v-34" fill="#f5f7fa"/>
  <rect x="270" y="25" width="180" height="54" rx="8" fill="#176b87"/>
  <text x="360" y="62" fill="#fff" font-family="sans-serif" font-size="34" font-weight="700" text-anchor="middle">SO-DIMM</text>
  <path d="M360 80v45" stroke="#176b87" stroke-width="5" marker-end="url(#arrow)"/>
  <defs>
    <marker id="arrow" markerWidth="10" markerHeight="10" refX="5" refY="3" orient="auto">
      <path d="M0 0 6 3 0 6Z" fill="#176b87"/>
    </marker>
  </defs>
</svg>
