<svg xmlns="http://www.w3.org/2000/svg" width="760" height="420" viewBox="0 0 760 420" role="img" aria-labelledby="title desc">
  <title id="title">Display panel comparison</title>
  <desc id="desc">Question-side illustration comparing two simplified display panel designs.</desc>
  <rect width="760" height="420" fill="#f8fafc"/>
  <text x="190" y="42" text-anchor="middle" font-family="Arial, sans-serif" font-size="26" font-weight="700" fill="#0f172a">Panel A</text>
  <text x="570" y="42" text-anchor="middle" font-family="Arial, sans-serif" font-size="26" font-weight="700" fill="#0f172a">Panel B</text>
  <rect x="70" y="86" width="240" height="30" rx="5" fill="#bae6fd" stroke="#0369a1" stroke-width="3"/>
  <rect x="70" y="138" width="240" height="76" rx="8" fill="#cbd5e1" stroke="#475569" stroke-width="3"/>
  <rect x="70" y="238" width="240" height="54" rx="8" fill="#fde68a" stroke="#a16207" stroke-width="3"/>
  <path d="M112 236 L112 126 M158 236 L158 126 M204 236 L204 126 M250 236 L250 126" stroke="#f59e0b" stroke-width="8" stroke-linecap="round"/>
  <text x="190" y="344" text-anchor="middle" font-family="Arial, sans-serif" font-size="20" fill="#334155">Panel design detail</text>
  <rect x="450" y="104" width="240" height="188" rx="10" fill="#e2e8f0" stroke="#475569" stroke-width="3"/>
  <circle cx="500" cy="150" r="18" fill="#ef4444"/>
  <circle cx="555" cy="150" r="18" fill="#22c55e"/>
  <circle cx="610" cy="150" r="18" fill="#3b82f6"/>
  <circle cx="500" cy="210" r="18" fill="#f97316"/>
  <circle cx="555" cy="210" r="18" fill="#a855f7"/>
  <circle cx="610" cy="210" r="18" fill="#06b6d4"/>
  <circle cx="500" cy="270" r="18" fill="#eab308"/>
  <circle cx="555" cy="270" r="18" fill="#14b8a6"/>
  <circle cx="610" cy="270" r="18" fill="#ec4899"/>
  <path d="M500 120 L500 82 M555 120 L555 82 M610 120 L610 82" stroke="#f97316" stroke-width="6" stroke-linecap="round"/>
  <path d="M500 300 L500 338 M555 300 L555 338 M610 300 L610 338" stroke="#f97316" stroke-width="6" stroke-linecap="round"/>
  <text x="570" y="344" text-anchor="middle" font-family="Arial, sans-serif" font-size="20" fill="#334155">Panel design detail</text>
  <rect x="252" y="372" width="256" height="28" rx="7" fill="#e2e8f0"/>
</svg>
