<svg xmlns="http://www.w3.org/2000/svg" width="820" height="360" viewBox="0 0 820 360" role="img">
  <rect width="820" height="360" fill="#f7f8fa"/>
  <text x="410" y="42" text-anchor="middle" font-family="Arial, sans-serif" font-size="24" fill="#20252d">Fiber connector styles</text>
  <g transform="translate(80 102)">
    <rect x="-20" y="-18" width="220" height="184" rx="18" fill="#dcfce7" stroke="#15803d" stroke-width="8"/>
    <rect x="0" y="42" width="170" height="58" rx="28" fill="#d7dde6" stroke="#4c5968" stroke-width="5"/>
    <circle cx="38" cy="71" r="18" fill="#edf1f5" stroke="#4c5968" stroke-width="4"/>
    <circle cx="132" cy="71" r="18" fill="#edf1f5" stroke="#4c5968" stroke-width="4"/>
    <rect x="54" y="10" width="62" height="32" rx="8" fill="#c5ccd6" stroke="#4c5968" stroke-width="4"/>
    <path d="M18 30 L44 30 M126 112 L152 112" stroke="#4c5968" stroke-width="6" stroke-linecap="round"/>
    <text x="85" y="210" text-anchor="middle" font-family="Arial, sans-serif" font-size="26" font-weight="700" fill="#14532d">ST</text>
    <text x="85" y="238" text-anchor="middle" font-family="Arial, sans-serif" font-size="18" fill="#166534">twist to lock</text>
  </g>
  <g transform="translate(330 112)">
    <rect x="0" y="24" width="170" height="92" rx="10" fill="#d7dde6" stroke="#4c5968" stroke-width="5"/>
    <rect x="28" y="4" width="114" height="28" rx="6" fill="#c5ccd6" stroke="#4c5968" stroke-width="4"/>
    <circle cx="85" cy="70" r="24" fill="#edf1f5" stroke="#4c5968" stroke-width="4"/>
    <text x="85" y="200" text-anchor="middle" font-family="Arial, sans-serif" font-size="26" font-weight="700" fill="#20252d">SC</text>
    <text x="85" y="228" text-anchor="middle" font-family="Arial, sans-serif" font-size="18" fill="#4c5968">push-pull</text>
  </g>
  <g transform="translate(590 112)">
    <rect x="0" y="34" width="132" height="78" rx="8" fill="#d7dde6" stroke="#4c5968" stroke-width="5"/>
    <rect x="26" y="4" width="80" height="36" rx="5" fill="#c5ccd6" stroke="#4c5968" stroke-width="4"/>
    <rect x="46" y="56" width="40" height="34" rx="4" fill="#edf1f5" stroke="#4c5968" stroke-width="4"/>
    <path d="M108 20 L132 20 L132 44" fill="none" stroke="#4c5968" stroke-width="5" stroke-linecap="round"/>
    <text x="66" y="200" text-anchor="middle" font-family="Arial, sans-serif" font-size="26" font-weight="700" fill="#20252d">LC</text>
    <text x="66" y="228" text-anchor="middle" font-family="Arial, sans-serif" font-size="18" fill="#4c5968">small clip</text>
  </g>
</svg>
