<svg xmlns="http://www.w3.org/2000/svg" width="760" height="360" viewBox="0 0 760 360" role="img">
  <rect width="760" height="360" fill="#f7f8fa"/>
  <text x="380" y="42" text-anchor="middle" font-family="Arial, sans-serif" font-size="24" fill="#20252d">Modular connector comparison</text>
  <g transform="translate(92 105)">
    <rect x="0" y="50" width="210" height="112" rx="12" fill="#d7dde6" stroke="#4c5968" stroke-width="5"/>
    <rect x="34" y="20" width="142" height="42" rx="10" fill="#edf1f5" stroke="#4c5968" stroke-width="5"/>
    <rect x="56" y="150" width="98" height="28" rx="8" fill="#c5ccd6" stroke="#4c5968" stroke-width="4"/>
    <g stroke="#4c5968" stroke-width="3">
      <line x1="38" y1="84" x2="38" y2="136"/>
      <line x1="68" y1="84" x2="68" y2="136"/>
      <line x1="98" y1="84" x2="98" y2="136"/>
      <line x1="128" y1="84" x2="128" y2="136"/>
      <line x1="158" y1="84" x2="158" y2="136"/>
      <line x1="188" y1="84" x2="188" y2="136"/>
    </g>
    <text x="105" y="225" text-anchor="middle" font-family="Arial, sans-serif" font-size="26" font-weight="700" fill="#20252d">RJ11</text>
    <text x="105" y="254" text-anchor="middle" font-family="Arial, sans-serif" font-size="18" fill="#4c5968">phone or DSL</text>
  </g>
  <g transform="translate(410 85)">
    <rect x="-16" y="20" width="282" height="190" rx="18" fill="#dcfce7" stroke="#15803d" stroke-width="8"/>
    <rect x="0" y="52" width="250" height="132" rx="14" fill="#d7dde6" stroke="#4c5968" stroke-width="5"/>
    <rect x="40" y="20" width="170" height="46" rx="10" fill="#edf1f5" stroke="#4c5968" stroke-width="5"/>
    <rect x="74" y="172" width="102" height="30" rx="8" fill="#c5ccd6" stroke="#4c5968" stroke-width="4"/>
    <g stroke="#4c5968" stroke-width="3">
      <line x1="38" y1="88" x2="38" y2="154"/>
      <line x1="63" y1="88" x2="63" y2="154"/>
      <line x1="88" y1="88" x2="88" y2="154"/>
      <line x1="113" y1="88" x2="113" y2="154"/>
      <line x1="138" y1="88" x2="138" y2="154"/>
      <line x1="163" y1="88" x2="163" y2="154"/>
      <line x1="188" y1="88" x2="188" y2="154"/>
      <line x1="213" y1="88" x2="213" y2="154"/>
    </g>
    <text x="125" y="252" text-anchor="middle" font-family="Arial, sans-serif" font-size="26" font-weight="700" fill="#14532d">RJ45</text>
    <text x="125" y="281" text-anchor="middle" font-family="Arial, sans-serif" font-size="18" fill="#166534">Ethernet</text>
  </g>
</svg>
